{
  "source": "C:\\Users\\Peter\\Desktop\\stuff\\MIUN\\quantitative_research\\video_compression\\videos\\BVI-HD\\BVI-HD_CDVL_videos\\ORIG\\Diver_1920x1080_30fps.mp4",
  "output": "C:\\Users\\Peter\\Desktop\\stuff\\MIUN\\quantitative_research\\video_compression\\compressed_videos\\BVI-HD\\av1\\2\\Diver_1920x1080_30fps_av1.mkv",
  "codec": "av1",
  "ok": "Input #0, mov,mp4,m4a,3gp,3g2,mj2, from 'C:\\Users\\Peter\\Desktop\\stuff\\MIUN\\quantitative_research\\video_compression\\videos\\BVI-HD\\BVI-HD_CDVL_videos\\ORIG\\Diver_1920x1080_30fps.mp4':\n  Metadata:\n    major_brand     : isom\n    minor_version   : 512\n    compatible_brands: isomiso2avc1mp41\n    encoder         : Lavf54.28.101\n  Duration: 00:00:05.00, start: 0.000000, bitrate: 196798 kb/s\n  Stream #0:0[0x1](und): Video: h264 (High 4:4:4 Predictive) (avc1 / 0x31637661), yuv420p(progressive), 1920x1080, 196794 kb/s, 30 fps, 30 tbr, 30 tbn (default)\n    Metadata:\n      handler_name    : VideoHandler\n      vendor_id       : [0][0][0][0]\n[out#0/matroska @ 000002322b040c00] Codec AVOption b:a (set bitrate (in bits/s)) has not been used for any stream. The most likely reason is either wrong type (e.g. a video option with no video streams) or that it is a private option of some decoder which was not actually used for any stream.\nStream mapping:\n  Stream #0:0 -> #0:0 (h264 (native) -> av1 (libsvtav1))\nPress [q] to stop, [?] for help\nSvt[info]: -------------------------------------------\nSvt[info]: SVT [version]:\tSVT-AV1 Encoder Lib v3.1.0-19-g6ecfe8ec\nSvt[info]: SVT [build]  :\tGCC 15.2.0\t 64 bit\nSvt[info]: LIB Build date: Aug 17 2025 11:37:13\nSvt[info]: -------------------------------------------\nSvt[info]: Level of Parallelism: 5\nSvt[info]: Number of PPCS 93\nSvt[info]: [asm level on system : up to avx2]\nSvt[info]: [asm level selected : up to avx2]\nSvt[info]: -------------------------------------------\nSvt[info]: SVT [config]: main profile\ttier (auto)\tlevel (auto)\nSvt[info]: SVT [config]: width / height / fps numerator / fps denominator \t\t: 1920 / 1080 / 30 / 1\nSvt[info]: SVT [config]: bit-depth / color format \t\t\t\t\t: 8 / YUV420\nSvt[info]: SVT [config]: preset / tune / pred struct \t\t\t\t\t: 4 / PSNR / random access\nSvt[info]: SVT [config]: gop size / mini-gop size / key-frame type \t\t\t: 161 / 16 / key frame\nSvt[info]: SVT [config]: BRC mode / target bitrate (kbps)\t\t\t\t: VBR / 2000 \nSvt[info]: SVT [config]: AQ mode / Variance Boost \t\t\t\t\t: 2 / 0\nSvt[info]: SVT [config]: sharpness / luminance-based QP bias \t\t\t\t: 0 / 0\nSvt[info]: SVT [config]: QP scale compress strength \t\t\t\t\t: 0\nSvt[info]: -------------------------------------------\nOutput #0, matroska, to 'C:\\Users\\Peter\\Desktop\\stuff\\MIUN\\quantitative_research\\video_compression\\compressed_videos\\BVI-HD\\av1\\2\\Diver_1920x1080_30fps_av1.mkv':\n  Metadata:\n    major_brand     : isom\n    minor_version   : 512\n    compatible_brands: isomiso2avc1mp41\n    encoder         : Lavf62.3.100\n  Stream #0:0(und): Video: av1 (AV01 / 0x31305641), yuv420p(tv, progressive), 1920x1080, q=2-31, 2000 kb/s, 30 fps, 1k tbn (default)\n    Metadata:\n      encoder         : Lavc62.11.100 libsvtav1\n      handler_name    : VideoHandler\n      vendor_id       : [0][0][0][0]\n    Side data:\n      cpb: bitrate max/min/avg: 0/0/2000000 buffer size: 2000000 vbv_delay: N/A\nframe=    0 fps=0.0 q=0.0 size=       0KiB time=N/A bitrate=N/A speed=N/A elapsed=0:00:01.04    \nframe=    0 fps=0.0 q=0.0 size=       0KiB time=N/A bitrate=N/A speed=N/A elapsed=0:00:01.56    \nframe=    0 fps=0.0 q=0.0 size=       0KiB time=N/A bitrate=N/A speed=N/A elapsed=0:00:02.10    \nframe=    1 fps=0.4 q=9.0 size=       1KiB time=00:00:00.00 bitrate=N/A speed=   0x elapsed=0:00:02.61    \nframe=    1 fps=0.3 q=9.0 size=       1KiB time=00:00:00.00 bitrate=N/A speed=   0x elapsed=0:00:03.15    \nframe=    1 fps=0.3 q=9.0 size=       1KiB time=00:00:00.00 bitrate=N/A speed=   0x elapsed=0:00:03.65    \nframe=    2 fps=0.5 q=35.0 size=       1KiB time=00:00:00.03 bitrate= 171.1kbits/s speed=0.00798x elapsed=0:00:04.17    \nframe=    6 fps=1.3 q=33.0 size=       1KiB time=00:00:00.16 bitrate=  34.2kbits/s speed=0.0355x elapsed=0:00:04.69    \nframe=    8 fps=1.5 q=30.0 size=       1KiB time=00:00:00.23 bitrate=  24.4kbits/s speed=0.0448x elapsed=0:00:05.20    \nframe=   10 fps=1.7 q=29.0 size=       1KiB time=00:00:00.30 bitrate=  19.0kbits/s speed=0.0523x elapsed=0:00:05.74    \nframe=   12 fps=1.9 q=27.0 size=       1KiB time=00:00:00.36 bitrate=  15.6kbits/s speed=0.0583x elapsed=0:00:06.29    \nframe=   16 fps=2.4 q=26.0 size=       1KiB time=00:00:00.50 bitrate=  11.4kbits/s speed=0.0735x elapsed=0:00:06.80    \nframe=   18 fps=2.4 q=26.0 size=       1KiB time=00:00:00.56 bitrate=  10.1kbits/s speed=0.077x elapsed=0:00:07.35    \nframe=   20 fps=2.5 q=26.0 size=       1KiB time=00:00:00.63 bitrate=   9.0kbits/s speed=0.0804x elapsed=0:00:07.88    \nframe=   22 fps=2.6 q=25.0 size=       1KiB time=00:00:00.70 bitrate=   8.1kbits/s speed=0.0833x elapsed=0:00:08.40    \nframe=   23 fps=2.6 q=26.0 size=       1KiB time=00:00:00.73 bitrate=   7.8kbits/s speed=0.0822x elapsed=0:00:08.92    \nframe=   26 fps=2.7 q=24.0 size=       1KiB time=00:00:00.83 bitrate=   6.8kbits/s speed=0.0881x elapsed=0:00:09.46    \nframe=   27 fps=2.7 q=26.0 size=       1KiB time=00:00:00.86 bitrate=   6.6kbits/s speed=0.0867x elapsed=0:00:09.99    \nframe=   31 fps=2.9 q=26.0 size=       1KiB time=00:00:01.00 bitrate=   5.7kbits/s speed=0.0949x elapsed=0:00:10.53    \nframe=   34 fps=3.1 q=21.0 size=       1KiB time=00:00:01.10 bitrate=   5.2kbits/s speed=0.0995x elapsed=0:00:11.05    \nframe=   35 fps=3.0 q=25.0 size=       1KiB time=00:00:01.13 bitrate=   5.0kbits/s speed=0.0979x elapsed=0:00:11.57    \nframe=   37 fps=3.1 q=29.0 size=       1KiB time=00:00:01.20 bitrate=   4.8kbits/s speed=0.0992x elapsed=0:00:12.09    \nframe=   39 fps=3.1 q=25.0 size=       1KiB time=00:00:01.26 bitrate=   4.5kbits/s speed= 0.1x elapsed=0:00:12.62    \nframe=   40 fps=3.0 q=24.0 size=       1KiB time=00:00:01.30 bitrate=   4.4kbits/s speed=0.0989x elapsed=0:00:13.14    \nframe=   43 fps=3.1 q=27.0 size=       1KiB time=00:00:01.40 bitrate=   4.1kbits/s speed=0.103x elapsed=0:00:13.65    \nframe=   44 fps=3.1 q=25.0 size=       1KiB time=00:00:01.43 bitrate=   4.0kbits/s speed=0.101x elapsed=0:00:14.20    \nframe=   48 fps=3.3 q=26.0 size=       1KiB time=00:00:01.56 bitrate=   3.6kbits/s speed=0.106x elapsed=0:00:14.74    \nframe=   50 fps=3.3 q=27.0 size=       1KiB time=00:00:01.63 bitrate=   3.5kbits/s speed=0.107x elapsed=0:00:15.27    \nframe=   52 fps=3.3 q=27.0 size=       1KiB time=00:00:01.70 bitrate=   3.4kbits/s speed=0.108x elapsed=0:00:15.80    \nframe=   57 fps=3.5 q=15.0 size=       1KiB time=00:00:01.86 bitrate=   3.1kbits/s speed=0.114x elapsed=0:00:16.32    \nframe=   57 fps=3.4 q=15.0 size=       1KiB time=00:00:01.86 bitrate=   3.1kbits/s speed=0.111x elapsed=0:00:16.84    \nframe=   59 fps=3.4 q=31.0 size=       1KiB time=00:00:01.93 bitrate=   3.0kbits/s speed=0.111x elapsed=0:00:17.39    \nframe=   61 fps=3.4 q=28.0 size=       1KiB time=00:00:02.00 bitrate=   2.9kbits/s speed=0.111x elapsed=0:00:17.98    \nframe=   61 fps=3.3 q=28.0 size=       1KiB time=00:00:02.00 bitrate=   2.9kbits/s speed=0.108x elapsed=0:00:18.58    \nframe=   63 fps=3.3 q=31.0 size=       1KiB time=00:00:02.06 bitrate=   2.8kbits/s speed=0.108x elapsed=0:00:19.15    \nframe=   65 fps=3.3 q=7.0 size=       1KiB time=00:00:02.13 bitrate=   2.7kbits/s speed=0.108x elapsed=0:00:19.72    \nframe=   67 fps=3.3 q=30.0 size=       1KiB time=00:00:02.20 bitrate=   2.6kbits/s speed=0.108x elapsed=0:00:20.32    \nframe=   69 fps=3.3 q=30.0 size=       1KiB time=00:00:02.26 bitrate=   2.5kbits/s speed=0.108x elapsed=0:00:20.92    \nframe=   69 fps=3.2 q=30.0 size=       1KiB time=00:00:02.26 bitrate=   2.5kbits/s speed=0.105x elapsed=0:00:21.53    \nframe=   71 fps=3.2 q=30.0 size=       1KiB time=00:00:02.33 bitrate=   2.4kbits/s speed=0.105x elapsed=0:00:22.11    \nframe=   73 fps=3.2 q=16.0 size=       1KiB time=00:00:02.40 bitrate=   2.4kbits/s speed=0.106x elapsed=0:00:22.62    \nframe=   73 fps=3.2 q=16.0 size=       1KiB time=00:00:02.40 bitrate=   2.4kbits/s speed=0.104x elapsed=0:00:23.14    \nframe=   75 fps=3.2 q=31.0 size=       1KiB time=00:00:02.46 bitrate=   2.3kbits/s speed=0.104x elapsed=0:00:23.66    \nframe=   77 fps=3.2 q=29.0 size=       1KiB time=00:00:02.53 bitrate=   2.3kbits/s speed=0.105x elapsed=0:00:24.19    \nframe=   79 fps=3.2 q=31.0 size=       1KiB time=00:00:02.60 bitrate=   2.2kbits/s speed=0.105x elapsed=0:00:24.71    \nframe=   83 fps=3.3 q=33.0 size=       1KiB time=00:00:02.73 bitrate=   2.1kbits/s speed=0.108x elapsed=0:00:25.23    \nframe=   85 fps=3.3 q=31.0 size=       1KiB time=00:00:02.80 bitrate=   2.0kbits/s speed=0.109x elapsed=0:00:25.73    \nframe=   89 fps=3.4 q=17.0 size=       1KiB time=00:00:02.93 bitrate=   1.9kbits/s speed=0.112x elapsed=0:00:26.25    \nframe=   89 fps=3.3 q=17.0 size=       1KiB time=00:00:02.93 bitrate=   1.9kbits/s speed=0.11x elapsed=0:00:26.77    \nframe=   93 fps=3.4 q=31.0 size=       1KiB time=00:00:03.06 bitrate=   1.9kbits/s speed=0.112x elapsed=0:00:27.32    \nframe=   95 fps=3.4 q=32.0 size=       1KiB time=00:00:03.13 bitrate=   1.8kbits/s speed=0.112x elapsed=0:00:27.87    \nframe=   97 fps=3.4 q=6.0 size=       1KiB time=00:00:03.20 bitrate=   1.8kbits/s speed=0.113x elapsed=0:00:28.38    \nframe=  101 fps=3.5 q=29.0 size=       1KiB time=00:00:03.33 bitrate=   1.7kbits/s speed=0.115x elapsed=0:00:28.90    \nframe=  101 fps=3.4 q=29.0 size=       1KiB time=00:00:03.33 bitrate=   1.7kbits/s speed=0.113x elapsed=0:00:29.40    \nframe=  105 fps=3.5 q=17.0 size=       1KiB time=00:00:03.46 bitrate=   1.6kbits/s speed=0.116x elapsed=0:00:29.93    \nframe=  105 fps=3.4 q=17.0 size=       1KiB time=00:00:03.46 bitrate=   1.6kbits/s speed=0.114x elapsed=0:00:30.45    \nframe=  107 fps=3.5 q=30.0 size=       1KiB time=00:00:03.53 bitrate=   1.6kbits/s speed=0.114x elapsed=0:00:30.99    \nframe=  109 fps=3.5 q=30.0 size=       1KiB time=00:00:03.60 bitrate=   1.6kbits/s speed=0.114x elapsed=0:00:31.52    \nframe=  111 fps=3.5 q=32.0 size=       1KiB time=00:00:03.66 bitrate=   1.6kbits/s speed=0.114x elapsed=0:00:32.03    \nframe=  115 fps=3.5 q=31.0 size=       1KiB time=00:00:03.80 bitrate=   1.5kbits/s speed=0.117x elapsed=0:00:32.55    \nframe=  117 fps=3.5 q=30.0 size=       1KiB time=00:00:03.86 bitrate=   1.5kbits/s speed=0.117x elapsed=0:00:33.06    \nframe=  121 fps=3.6 q=15.0 size=       1KiB time=00:00:04.00 bitrate=   1.4kbits/s speed=0.119x elapsed=0:00:33.58    \nframe=  121 fps=3.5 q=15.0 size=       1KiB time=00:00:04.00 bitrate=   1.4kbits/s speed=0.117x elapsed=0:00:34.10    \nframe=  125 fps=3.6 q=32.0 size=       1KiB time=00:00:04.13 bitrate=   1.4kbits/s speed=0.119x elapsed=0:00:34.62    \nframe=  127 fps=3.6 q=35.0 size=       1KiB time=00:00:04.20 bitrate=   1.4kbits/s speed=0.119x elapsed=0:00:35.15    \nframe=  131 fps=3.7 q=34.0 size=       1KiB time=00:00:04.33 bitrate=   1.3kbits/s speed=0.121x elapsed=0:00:35.67    \nframe=  133 fps=3.7 q=32.0 size=       1KiB time=00:00:04.40 bitrate=   1.3kbits/s speed=0.122x elapsed=0:00:36.19    \nframe=  137 fps=3.7 q=24.0 size=       1KiB time=00:00:04.53 bitrate=   1.3kbits/s speed=0.123x elapsed=0:00:36.71    \nframe=  137 fps=3.7 q=24.0 size=       1KiB time=00:00:04.53 bitrate=   1.3kbits/s speed=0.122x elapsed=0:00:37.22    \nframe=  141 fps=3.7 q=34.0 size=       1KiB time=00:00:04.66 bitrate=   1.2kbits/s speed=0.124x elapsed=0:00:37.76    \nframe=  143 fps=3.7 q=34.0 size=       1KiB time=00:00:04.73 bitrate=   1.2kbits/s speed=0.124x elapsed=0:00:38.29    \n[out#0/matroska @ 000002322b040c00] video:1043KiB audio:0KiB subtitle:0KiB other streams:0KiB global headers:0KiB muxing overhead: 0.135483%\nframe=  150 fps=3.9 q=38.0 Lsize=    1044KiB time=00:00:04.96 bitrate=1722.7kbits/s speed=0.13x elapsed=0:00:38.30    \n",
  "seconds": 38.73141169548035,
  "probe_out": {}
}